<svg xmlns="http://www.w3.org/2000/svg" width="936" height="676" viewBox="0 0 936 676"><rect width="100%" height="100%" fill="#101418"/><g font-family="ui-monospace,SFMono-Regular,Menlo,Consolas,monospace" font-size="14" xml:space="preserve"><text x="36.0" y="32.4" fill="#e6edf3">b</text><text x="45.0" y="32.4" fill="#e6edf3">g</text><text x="72.0" y="32.4" fill="#e6edf3">4</text><text x="81.0" y="32.4" fill="#e6edf3">0</text><text x="108.0" y="32.4" fill="#e6edf3">4</text><text x="117.0" y="32.4" fill="#e6edf3">1</text><text x="144.0" y="32.4" fill="#e6edf3">4</text><text x="153.0" y="32.4" fill="#e6edf3">2</text><text x="180.0" y="32.4" fill="#e6edf3">4</text><text x="189.0" y="32.4" fill="#e6edf3">3</text><text x="216.0" y="32.4" fill="#e6edf3">4</text><text x="225.0" y="32.4" fill="#e6edf3">4</text><text x="252.0" y="32.4" fill="#e6edf3">4</text><text x="261.0" y="32.4" fill="#e6edf3">5</text><text x="288.0" y="32.4" fill="#e6edf3">4</text><text x="297.0" y="32.4" fill="#e6edf3">6</text><text x="324.0" y="32.4" fill="#e6edf3">4</text><text x="333.0" y="32.4" fill="#e6edf3">7</text><text x="36.0" y="52.4" fill="#e6edf3">b</text><text x="45.0" y="52.4" fill="#e6edf3">g</text><text x="54.0" y="52.4" fill="#e6edf3">b</text><text x="63.0" y="52.4" fill="#e6edf3">r</text><text x="72.0" y="52.4" fill="#e6edf3">i</text><text x="81.0" y="52.4" fill="#e6edf3">g</text><text x="90.0" y="52.4" fill="#e6edf3">h</text><text x="99.0" y="52.4" fill="#e6edf3">t</text><text x="117.0" y="52.4" fill="#e6edf3">1</text><text x="126.0" y="52.4" fill="#e6edf3">0</text><text x="135.0" y="52.4" fill="#e6edf3">0</text><text x="144.0" y="52.4" fill="#e6edf3">1</text><text x="153.0" y="52.4" fill="#e6edf3">0</text><text x="162.0" y="52.4" fill="#e6edf3">1</text><text x="171.0" y="52.4" fill="#e6edf3">1</text><text x="180.0" y="52.4" fill="#e6edf3">0</text><text x="189.0" y="52.4" fill="#e6edf3">2</text><text x="198.0" y="52.4" fill="#e6edf3">1</text><text x="207.0" y="52.4" fill="#e6edf3">0</text><text x="216.0" y="52.4" fill="#e6edf3">3</text><text x="225.0" y="52.4" fill="#e6edf3">1</text><text x="234.0" y="52.4" fill="#e6edf3">0</text><text x="243.0" y="52.4" fill="#e6edf3">4</text><text x="252.0" y="52.4" fill="#e6edf3">1</text><text x="261.0" y="52.4" fill="#e6edf3">0</text><text x="270.0" y="52.4" fill="#e6edf3">5</text><text x="279.0" y="52.4" fill="#e6edf3">1</text><text x="288.0" y="52.4" fill="#e6edf3">0</text><text x="297.0" y="52.4" fill="#e6edf3">6</text><text x="306.0" y="52.4" fill="#e6edf3">1</text><text x="315.0" y="52.4" fill="#e6edf3">0</text><text x="324.0" y="52.4" fill="#e6edf3">7</text><text x="18.0" y="72.4" fill="#e6edf3">2</text><text x="27.0" y="72.4" fill="#e6edf3">5</text><text x="36.0" y="72.4" fill="#e6edf3">6</text><text x="45.0" y="72.4" fill="#e6edf3">-</text><text x="54.0" y="72.4" fill="#e6edf3">c</text><text x="63.0" y="72.4" fill="#e6edf3">o</text><text x="72.0" y="72.4" fill="#e6edf3">l</text><text x="81.0" y="72.4" fill="#e6edf3">o</text><text x="90.0" y="72.4" fill="#e6edf3">u</text><text x="99.0" y="72.4" fill="#e6edf3">r</text><text x="126.0" y="72.4" fill="#e6edf3">6</text><text x="135.0" y="72.4" fill="#e6edf3">x</text><text x="144.0" y="72.4" fill="#e6edf3">6</text><text x="153.0" y="72.4" fill="#e6edf3">x</text><text x="162.0" y="72.4" fill="#e6edf3">6</text><text x="180.0" y="72.4" fill="#e6edf3">c</text><text x="189.0" y="72.4" fill="#e6edf3">u</text><text x="198.0" y="72.4" fill="#e6edf3">b</text><text x="207.0" y="72.4" fill="#e6edf3">e</text><text x="225.0" y="72.4" fill="#e6edf3">(</text><text x="234.0" y="72.4" fill="#e6edf3">1</text><text x="243.0" y="72.4" fill="#e6edf3">6</text><text x="252.0" y="72.4" fill="#e6edf3">-</text><text x="261.0" y="72.4" fill="#e6edf3">2</text><text x="270.0" y="72.4" fill="#e6edf3">3</text><text x="279.0" y="72.4" fill="#e6edf3">1</text><text x="288.0" y="72.4" fill="#e6edf3">)</text><text x="306.0" y="72.4" fill="#e6edf3">t</text><text x="315.0" y="72.4" fill="#e6edf3">h</text><text x="324.0" y="72.4" fill="#e6edf3">e</text><text x="333.0" y="72.4" fill="#e6edf3">n</text><text x="351.0" y="72.4" fill="#e6edf3">g</text><text x="360.0" y="72.4" fill="#e6edf3">r</text><text x="369.0" y="72.4" fill="#e6edf3">e</text><text x="378.0" y="72.4" fill="#e6edf3">y</text><text x="387.0" y="72.4" fill="#e6edf3">s</text><text x="396.0" y="72.4" fill="#e6edf3">c</text><text x="405.0" y="72.4" fill="#e6edf3">a</text><text x="414.0" y="72.4" fill="#e6edf3">l</text><text x="423.0" y="72.4" fill="#e6edf3">e</text><text x="441.0" y="72.4" fill="#e6edf3">r</text><text x="450.0" y="72.4" fill="#e6edf3">a</text><text x="459.0" y="72.4" fill="#e6edf3">m</text><text x="468.0" y="72.4" fill="#e6edf3">p</text><text x="486.0" y="72.4" fill="#e6edf3">(</text><text x="495.0" y="72.4" fill="#e6edf3">2</text><text x="504.0" y="72.4" fill="#e6edf3">3</text><text x="513.0" y="72.4" fill="#e6edf3">2</text><text x="522.0" y="72.4" fill="#e6edf3">-</text><text x="531.0" y="72.4" fill="#e6edf3">2</text><text x="540.0" y="72.4" fill="#e6edf3">5</text><text x="549.0" y="72.4" fill="#e6edf3">5</text><text x="558.0" y="72.4" fill="#e6edf3">)</text><text x="18.0" y="172.4" fill="#e6edf3">2</text><text x="27.0" y="172.4" fill="#e6edf3">4</text><text x="36.0" y="172.4" fill="#e6edf3">-</text><text x="45.0" y="172.4" fill="#e6edf3">b</text><text x="54.0" y="172.4" fill="#e6edf3">i</text><text x="63.0" y="172.4" fill="#e6edf3">t</text><text x="81.0" y="172.4" fill="#e6edf3">t</text><text x="90.0" y="172.4" fill="#e6edf3">r</text><text x="99.0" y="172.4" fill="#e6edf3">u</text><text x="108.0" y="172.4" fill="#e6edf3">e</text><text x="117.0" y="172.4" fill="#e6edf3">c</text><text x="126.0" y="172.4" fill="#e6edf3">o</text><text x="135.0" y="172.4" fill="#e6edf3">l</text><text x="144.0" y="172.4" fill="#e6edf3">o</text><text x="153.0" y="172.4" fill="#e6edf3">u</text><text x="162.0" y="172.4" fill="#e6edf3">r</text><text x="189.0" y="172.4" fill="#e6edf3">b</text><text x="198.0" y="172.4" fill="#e6edf3">g</text><text x="216.0" y="172.4" fill="#e6edf3">s</text><text x="225.0" y="172.4" fill="#e6edf3">w</text><text x="234.0" y="172.4" fill="#e6edf3">e</text><text x="243.0" y="172.4" fill="#e6edf3">e</text><text x="252.0" y="172.4" fill="#e6edf3">p</text><text x="270.0" y="172.4" fill="#e6edf3">t</text><text x="279.0" y="172.4" fill="#e6edf3">h</text><text x="288.0" y="172.4" fill="#e6edf3">e</text><text x="297.0" y="172.4" fill="#e6edf3">n</text><text x="315.0" y="172.4" fill="#e6edf3">f</text><text x="324.0" y="172.4" fill="#e6edf3">g</text><text x="342.0" y="172.4" fill="#e6edf3">s</text><text x="351.0" y="172.4" fill="#e6edf3">w</text><text x="360.0" y="172.4" fill="#e6edf3">e</text><text x="369.0" y="172.4" fill="#e6edf3">e</text><text x="378.0" y="172.4" fill="#e6edf3">p</text><text x="36.0" y="212.4" fill="#e6edf3">█</text><text x="45.0" y="212.4" fill="#e6edf3">█</text><text x="54.0" y="212.4" fill="#e6edf3">█</text><text x="63.0" y="212.4" fill="#e6edf3">█</text><text x="72.0" y="212.4" fill="#e6edf3">█</text><text x="81.0" y="212.4" fill="#e6edf3">█</text><text x="90.0" y="212.4" fill="#e6edf3">█</text><text x="99.0" y="212.4" fill="#e6edf3">█</text><text x="108.0" y="212.4" fill="#e6edf3">█</text><text x="117.0" y="212.4" fill="#e6edf3">█</text><text x="126.0" y="212.4" fill="#e6edf3">█</text><text x="135.0" y="212.4" fill="#e6edf3">█</text><text x="144.0" y="212.4" fill="#e6edf3">█</text><text x="153.0" y="212.4" fill="#e6edf3">█</text><text x="162.0" y="212.4" fill="#e6edf3">█</text><text x="171.0" y="212.4" fill="#e6edf3">█</text><text x="180.0" y="212.4" fill="#e6edf3">█</text><text x="189.0" y="212.4" fill="#e6edf3">█</text><text x="198.0" y="212.4" fill="#e6edf3">█</text><text x="207.0" y="212.4" fill="#e6edf3">█</text><text x="216.0" y="212.4" fill="#e6edf3">█</text><text x="225.0" y="212.4" fill="#e6edf3">█</text><text x="234.0" y="212.4" fill="#e6edf3">█</text><text x="243.0" y="212.4" fill="#e6edf3">█</text><text x="252.0" y="212.4" fill="#e6edf3">█</text><text x="261.0" y="212.4" fill="#e6edf3">█</text><text x="270.0" y="212.4" fill="#e6edf3">█</text><text x="279.0" y="212.4" fill="#e6edf3">█</text><text x="288.0" y="212.4" fill="#e6edf3">█</text><text x="297.0" y="212.4" fill="#e6edf3">█</text><text x="306.0" y="212.4" fill="#e6edf3">█</text><text x="315.0" y="212.4" fill="#e6edf3">█</text><text x="324.0" y="212.4" fill="#e6edf3">█</text><text x="333.0" y="212.4" fill="#e6edf3">█</text><text x="342.0" y="212.4" fill="#e6edf3">█</text><text x="351.0" y="212.4" fill="#e6edf3">█</text><text x="360.0" y="212.4" fill="#e6edf3">█</text><text x="369.0" y="212.4" fill="#e6edf3">█</text><text x="378.0" y="212.4" fill="#e6edf3">█</text><text x="387.0" y="212.4" fill="#e6edf3">█</text><text x="396.0" y="212.4" fill="#e6edf3">█</text><text x="405.0" y="212.4" fill="#e6edf3">█</text><text x="414.0" y="212.4" fill="#e6edf3">█</text><text x="423.0" y="212.4" fill="#e6edf3">█</text><text x="432.0" y="212.4" fill="#e6edf3">█</text><text x="441.0" y="212.4" fill="#e6edf3">█</text><text x="450.0" y="212.4" fill="#e6edf3">█</text><text x="459.0" y="212.4" fill="#e6edf3">█</text><text x="468.0" y="212.4" fill="#e6edf3">█</text><text x="477.0" y="212.4" fill="#e6edf3">█</text><text x="486.0" y="212.4" fill="#e6edf3">█</text><text x="495.0" y="212.4" fill="#e6edf3">█</text><text x="504.0" y="212.4" fill="#e6edf3">█</text><text x="513.0" y="212.4" fill="#e6edf3">█</text><text x="522.0" y="212.4" fill="#e6edf3">█</text><text x="531.0" y="212.4" fill="#e6edf3">█</text><text x="540.0" y="212.4" fill="#e6edf3">█</text><text x="549.0" y="212.4" fill="#e6edf3">█</text><text x="558.0" y="212.4" fill="#e6edf3">█</text><text x="567.0" y="212.4" fill="#e6edf3">█</text><text x="576.0" y="212.4" fill="#e6edf3">█</text><text x="585.0" y="212.4" fill="#e6edf3">█</text><text x="594.0" y="212.4" fill="#e6edf3">█</text><text x="603.0" y="212.4" fill="#e6edf3">█</text><text x="612.0" y="212.4" fill="#e6edf3">█</text><text x="621.0" y="212.4" fill="#e6edf3">█</text><text x="630.0" y="212.4" fill="#e6edf3">█</text><text x="639.0" y="212.4" fill="#e6edf3">█</text><text x="648.0" y="212.4" fill="#e6edf3">█</text><text x="657.0" y="212.4" fill="#e6edf3">█</text><text x="666.0" y="212.4" fill="#e6edf3">█</text><text x="675.0" y="212.4" fill="#e6edf3">█</text><text x="18.0" y="232.4" fill="#e6edf3">P</text><text x="27.0" y="232.4" fill="#e6edf3">A</text><text x="36.0" y="232.4" fill="#e6edf3">L</text><text x="45.0" y="232.4" fill="#e6edf3">E</text><text x="54.0" y="232.4" fill="#e6edf3">T</text><text x="63.0" y="232.4" fill="#e6edf3">T</text><text x="72.0" y="232.4" fill="#e6edf3">E</text><text x="90.0" y="232.4" fill="#e6edf3">R</text><text x="99.0" y="232.4" fill="#e6edf3">E</text><text x="108.0" y="232.4" fill="#e6edf3">A</text><text x="117.0" y="232.4" fill="#e6edf3">D</text><text x="126.0" y="232.4" fill="#e6edf3">Y</text><text x="18.0" y="272.4" fill="#e6edf3">c</text><text x="27.0" y="272.4" fill="#e6edf3">o</text><text x="36.0" y="272.4" fill="#e6edf3">l</text><text x="45.0" y="272.4" fill="#e6edf3">o</text><text x="54.0" y="272.4" fill="#e6edf3">u</text><text x="63.0" y="272.4" fill="#e6edf3">r</text><text x="72.0" y="272.4" fill="#e6edf3">&gt;</text><text x="90.0" y="272.4" fill="#e6edf3">a</text><text x="99.0" y="272.4" fill="#e6edf3">t</text><text x="108.0" y="272.4" fill="#e6edf3">t</text><text x="117.0" y="272.4" fill="#e6edf3">r</text><text x="126.0" y="272.4" fill="#e6edf3">s</text><text x="18.0" y="312.4" fill="#e6edf3">a</text><text x="27.0" y="312.4" fill="#e6edf3">t</text><text x="36.0" y="312.4" fill="#e6edf3">t</text><text x="45.0" y="312.4" fill="#e6edf3">r</text><text x="54.0" y="312.4" fill="#e6edf3">i</text><text x="63.0" y="312.4" fill="#e6edf3">b</text><text x="72.0" y="312.4" fill="#e6edf3">u</text><text x="81.0" y="312.4" fill="#e6edf3">t</text><text x="90.0" y="312.4" fill="#e6edf3">e</text><text x="99.0" y="312.4" fill="#e6edf3">s</text><text x="36.0" y="332.4" fill="#e6edf3">b</text><text x="45.0" y="332.4" fill="#e6edf3">o</text><text x="54.0" y="332.4" fill="#e6edf3">l</text><text x="63.0" y="332.4" fill="#e6edf3">d</text><text x="90.0" y="332.4" fill="#e6edf3">d</text><text x="99.0" y="332.4" fill="#e6edf3">i</text><text x="108.0" y="332.4" fill="#e6edf3">m</text><text x="135.0" y="332.4" fill="#e6edf3">i</text><text x="144.0" y="332.4" fill="#e6edf3">t</text><text x="153.0" y="332.4" fill="#e6edf3">a</text><text x="162.0" y="332.4" fill="#e6edf3">l</text><text x="171.0" y="332.4" fill="#e6edf3">i</text><text x="180.0" y="332.4" fill="#e6edf3">c</text><text x="207.0" y="332.4" fill="#e6edf3">u</text><text x="216.0" y="332.4" fill="#e6edf3">n</text><text x="225.0" y="332.4" fill="#e6edf3">d</text><text x="234.0" y="332.4" fill="#e6edf3">e</text><text x="243.0" y="332.4" fill="#e6edf3">r</text><text x="252.0" y="332.4" fill="#e6edf3">l</text><text x="261.0" y="332.4" fill="#e6edf3">i</text><text x="270.0" y="332.4" fill="#e6edf3">n</text><text x="279.0" y="332.4" fill="#e6edf3">e</text><text x="306.0" y="332.4" fill="#e6edf3">r</text><text x="315.0" y="332.4" fill="#e6edf3">e</text><text x="324.0" y="332.4" fill="#e6edf3">v</text><text x="333.0" y="332.4" fill="#e6edf3">e</text><text x="342.0" y="332.4" fill="#e6edf3">r</text><text x="351.0" y="332.4" fill="#e6edf3">s</text><text x="360.0" y="332.4" fill="#e6edf3">e</text><text x="387.0" y="332.4" fill="#e6edf3">s</text><text x="396.0" y="332.4" fill="#e6edf3">t</text><text x="405.0" y="332.4" fill="#e6edf3">r</text><text x="414.0" y="332.4" fill="#e6edf3">i</text><text x="423.0" y="332.4" fill="#e6edf3">k</text><text x="432.0" y="332.4" fill="#e6edf3">e</text><text x="459.0" y="332.4" fill="#e6edf3">b</text><text x="468.0" y="332.4" fill="#e6edf3">o</text><text x="477.0" y="332.4" fill="#e6edf3">l</text><text x="486.0" y="332.4" fill="#e6edf3">d</text><text x="495.0" y="332.4" fill="#e6edf3">-</text><text x="504.0" y="332.4" fill="#e6edf3">r</text><text x="513.0" y="332.4" fill="#e6edf3">e</text><text x="522.0" y="332.4" fill="#e6edf3">d</text><text x="549.0" y="332.4" fill="#e6edf3">d</text><text x="558.0" y="332.4" fill="#e6edf3">i</text><text x="567.0" y="332.4" fill="#e6edf3">m</text><text x="576.0" y="332.4" fill="#e6edf3">-</text><text x="585.0" y="332.4" fill="#e6edf3">g</text><text x="594.0" y="332.4" fill="#e6edf3">r</text><text x="603.0" y="332.4" fill="#e6edf3">e</text><text x="612.0" y="332.4" fill="#e6edf3">e</text><text x="621.0" y="332.4" fill="#e6edf3">n</text><text x="648.0" y="332.4" fill="#e6edf3">u</text><text x="657.0" y="332.4" fill="#e6edf3">l</text><text x="666.0" y="332.4" fill="#e6edf3">-</text><text x="675.0" y="332.4" fill="#e6edf3">t</text><text x="684.0" y="332.4" fill="#e6edf3">r</text><text x="693.0" y="332.4" fill="#e6edf3">u</text><text x="702.0" y="332.4" fill="#e6edf3">e</text><text x="711.0" y="332.4" fill="#e6edf3">c</text><text x="720.0" y="332.4" fill="#e6edf3">o</text><text x="729.0" y="332.4" fill="#e6edf3">l</text><text x="738.0" y="332.4" fill="#e6edf3">o</text><text x="747.0" y="332.4" fill="#e6edf3">u</text><text x="756.0" y="332.4" fill="#e6edf3">r</text><text x="18.0" y="352.4" fill="#e6edf3">u</text><text x="27.0" y="352.4" fill="#e6edf3">n</text><text x="36.0" y="352.4" fill="#e6edf3">i</text><text x="45.0" y="352.4" fill="#e6edf3">c</text><text x="54.0" y="352.4" fill="#e6edf3">o</text><text x="63.0" y="352.4" fill="#e6edf3">d</text><text x="72.0" y="352.4" fill="#e6edf3">e</text><text x="99.0" y="352.4" fill="#e6edf3">b</text><text x="108.0" y="352.4" fill="#e6edf3">o</text><text x="117.0" y="352.4" fill="#e6edf3">x</text><text x="135.0" y="352.4" fill="#e6edf3">d</text><text x="144.0" y="352.4" fill="#e6edf3">r</text><text x="153.0" y="352.4" fill="#e6edf3">a</text><text x="162.0" y="352.4" fill="#e6edf3">w</text><text x="171.0" y="352.4" fill="#e6edf3">i</text><text x="180.0" y="352.4" fill="#e6edf3">n</text><text x="189.0" y="352.4" fill="#e6edf3">g</text><text x="198.0" y="352.4" fill="#e6edf3">,</text><text x="216.0" y="352.4" fill="#e6edf3">C</text><text x="225.0" y="352.4" fill="#e6edf3">J</text><text x="234.0" y="352.4" fill="#e6edf3">K</text><text x="252.0" y="352.4" fill="#e6edf3">w</text><text x="261.0" y="352.4" fill="#e6edf3">i</text><text x="270.0" y="352.4" fill="#e6edf3">d</text><text x="279.0" y="352.4" fill="#e6edf3">e</text><text x="297.0" y="352.4" fill="#e6edf3">c</text><text x="306.0" y="352.4" fill="#e6edf3">e</text><text x="315.0" y="352.4" fill="#e6edf3">l</text><text x="324.0" y="352.4" fill="#e6edf3">l</text><text x="333.0" y="352.4" fill="#e6edf3">s</text><text x="342.0" y="352.4" fill="#e6edf3">,</text><text x="360.0" y="352.4" fill="#e6edf3">e</text><text x="369.0" y="352.4" fill="#e6edf3">m</text><text x="378.0" y="352.4" fill="#e6edf3">o</text><text x="387.0" y="352.4" fill="#e6edf3">j</text><text x="396.0" y="352.4" fill="#e6edf3">i</text><text x="36.0" y="372.4" fill="#e6edf3">┏</text><text x="45.0" y="372.4" fill="#e6edf3">━</text><text x="54.0" y="372.4" fill="#e6edf3">━</text><text x="63.0" y="372.4" fill="#e6edf3">━</text><text x="72.0" y="372.4" fill="#e6edf3">┳</text><text x="81.0" y="372.4" fill="#e6edf3">━</text><text x="90.0" y="372.4" fill="#e6edf3">━</text><text x="99.0" y="372.4" fill="#e6edf3">━</text><text x="108.0" y="372.4" fill="#e6edf3">┓</text><text x="135.0" y="372.4" fill="#e6edf3">╔</text><text x="144.0" y="372.4" fill="#e6edf3">═</text><text x="153.0" y="372.4" fill="#e6edf3">╗</text><text x="180.0" y="372.4" fill="#e6edf3">╭</text><text x="189.0" y="372.4" fill="#e6edf3">─</text><text x="198.0" y="372.4" fill="#e6edf3">╮</text><text x="36.0" y="392.4" fill="#e6edf3">┃</text><text x="54.0" y="392.4" fill="#e6edf3">A</text><text x="72.0" y="392.4" fill="#e6edf3">┃</text><text x="90.0" y="392.4" fill="#e6edf3">B</text><text x="108.0" y="392.4" fill="#e6edf3">┃</text><text x="135.0" y="392.4" fill="#e6edf3">║</text><text x="153.0" y="392.4" fill="#e6edf3">║</text><text x="180.0" y="392.4" fill="#e6edf3">│</text><text x="198.0" y="392.4" fill="#e6edf3">│</text><text x="36.0" y="412.4" fill="#e6edf3">┗</text><text x="45.0" y="412.4" fill="#e6edf3">━</text><text x="54.0" y="412.4" fill="#e6edf3">━</text><text x="63.0" y="412.4" fill="#e6edf3">━</text><text x="72.0" y="412.4" fill="#e6edf3">┻</text><text x="81.0" y="412.4" fill="#e6edf3">━</text><text x="90.0" y="412.4" fill="#e6edf3">━</text><text x="99.0" y="412.4" fill="#e6edf3">━</text><text x="108.0" y="412.4" fill="#e6edf3">┛</text><text x="135.0" y="412.4" fill="#e6edf3">╚</text><text x="144.0" y="412.4" fill="#e6edf3">═</text><text x="153.0" y="412.4" fill="#e6edf3">╝</text><text x="180.0" y="412.4" fill="#e6edf3">╰</text><text x="189.0" y="412.4" fill="#e6edf3">─</text><text x="198.0" y="412.4" fill="#e6edf3">╯</text><text x="36.0" y="432.4" fill="#e6edf3">中</text><text x="54.0" y="432.4" fill="#e6edf3">文</text><text x="72.0" y="432.4" fill="#e6edf3">宽</text><text x="90.0" y="432.4" fill="#e6edf3">字</text><text x="108.0" y="432.4" fill="#e6edf3">符</text><text x="135.0" y="432.4" fill="#e6edf3">|</text><text x="153.0" y="432.4" fill="#e6edf3">日</text><text x="171.0" y="432.4" fill="#e6edf3">本</text><text x="189.0" y="432.4" fill="#e6edf3">語</text><text x="207.0" y="432.4" fill="#e6edf3">テ</text><text x="225.0" y="432.4" fill="#e6edf3">キ</text><text x="243.0" y="432.4" fill="#e6edf3">ス</text><text x="261.0" y="432.4" fill="#e6edf3">ト</text><text x="288.0" y="432.4" fill="#e6edf3">|</text><text x="306.0" y="432.4" fill="#e6edf3">한</text><text x="324.0" y="432.4" fill="#e6edf3">국</text><text x="342.0" y="432.4" fill="#e6edf3">어</text><text x="369.0" y="432.4" fill="#e6edf3">|</text><text x="387.0" y="432.4" fill="#e6edf3">🚀</text><text x="414.0" y="432.4" fill="#e6edf3">✔</text><text x="432.0" y="432.4" fill="#e6edf3">✗</text><text x="18.0" y="452.4" fill="#e6edf3">A</text><text x="27.0" y="452.4" fill="#e6edf3">T</text><text x="36.0" y="452.4" fill="#e6edf3">T</text><text x="45.0" y="452.4" fill="#e6edf3">R</text><text x="54.0" y="452.4" fill="#e6edf3">S</text><text x="72.0" y="452.4" fill="#e6edf3">R</text><text x="81.0" y="452.4" fill="#e6edf3">E</text><text x="90.0" y="452.4" fill="#e6edf3">A</text><text x="99.0" y="452.4" fill="#e6edf3">D</text><text x="108.0" y="452.4" fill="#e6edf3">Y</text><text x="18.0" y="492.4" fill="#e6edf3">c</text><text x="27.0" y="492.4" fill="#e6edf3">o</text><text x="36.0" y="492.4" fill="#e6edf3">l</text><text x="45.0" y="492.4" fill="#e6edf3">o</text><text x="54.0" y="492.4" fill="#e6edf3">u</text><text x="63.0" y="492.4" fill="#e6edf3">r</text><text x="72.0" y="492.4" fill="#e6edf3">&gt;</text><text x="90.0" y="492.4" fill="#e6edf3">a</text><text x="99.0" y="492.4" fill="#e6edf3">n</text><text x="108.0" y="492.4" fill="#e6edf3">i</text><text x="117.0" y="492.4" fill="#e6edf3">m</text><text x="126.0" y="492.4" fill="#e6edf3">a</text><text x="135.0" y="492.4" fill="#e6edf3">t</text><text x="144.0" y="492.4" fill="#e6edf3">e</text><text x="36.0" y="532.4" fill="#e6edf3">⠙</text><text x="54.0" y="532.4" fill="#e6edf3">i</text><text x="63.0" y="532.4" fill="#e6edf3">n</text><text x="72.0" y="532.4" fill="#e6edf3">d</text><text x="81.0" y="532.4" fill="#e6edf3">e</text><text x="90.0" y="532.4" fill="#e6edf3">x</text><text x="99.0" y="532.4" fill="#e6edf3">i</text><text x="108.0" y="532.4" fill="#e6edf3">n</text><text x="117.0" y="532.4" fill="#e6edf3">g</text><text x="504.0" y="532.4" fill="#e6edf3">1</text><text x="513.0" y="532.4" fill="#e6edf3">0</text><text x="522.0" y="532.4" fill="#e6edf3">0</text><text x="531.0" y="532.4" fill="#e6edf3">%</text><text x="18.0" y="552.4" fill="#e6edf3">A</text><text x="27.0" y="552.4" fill="#e6edf3">N</text><text x="36.0" y="552.4" fill="#e6edf3">I</text><text x="45.0" y="552.4" fill="#e6edf3">M</text><text x="54.0" y="552.4" fill="#e6edf3">A</text><text x="63.0" y="552.4" fill="#e6edf3">T</text><text x="72.0" y="552.4" fill="#e6edf3">E</text><text x="90.0" y="552.4" fill="#e6edf3">R</text><text x="99.0" y="552.4" fill="#e6edf3">E</text><text x="108.0" y="552.4" fill="#e6edf3">A</text><text x="117.0" y="552.4" fill="#e6edf3">D</text><text x="126.0" y="552.4" fill="#e6edf3">Y</text><text x="18.0" y="592.4" fill="#e6edf3">c</text><text x="27.0" y="592.4" fill="#e6edf3">o</text><text x="36.0" y="592.4" fill="#e6edf3">l</text><text x="45.0" y="592.4" fill="#e6edf3">o</text><text x="54.0" y="592.4" fill="#e6edf3">u</text><text x="63.0" y="592.4" fill="#e6edf3">r</text><text x="72.0" y="592.4" fill="#e6edf3">&gt;</text><text x="90.0" y="592.4" fill="#e6edf3">e</text><text x="99.0" y="592.4" fill="#e6edf3">x</text><text x="108.0" y="592.4" fill="#e6edf3">i</text><text x="117.0" y="592.4" fill="#e6edf3">t</text><text x="18.0" y="632.4" fill="#e6edf3">C</text><text x="27.0" y="632.4" fill="#e6edf3">O</text><text x="36.0" y="632.4" fill="#e6edf3">L</text><text x="45.0" y="632.4" fill="#e6edf3">O</text><text x="54.0" y="632.4" fill="#e6edf3">U</text><text x="63.0" y="632.4" fill="#e6edf3">R</text><text x="81.0" y="632.4" fill="#e6edf3">S</text><text x="90.0" y="632.4" fill="#e6edf3">T</text><text x="99.0" y="632.4" fill="#e6edf3">R</text><text x="108.0" y="632.4" fill="#e6edf3">E</text><text x="117.0" y="632.4" fill="#e6edf3">S</text><text x="126.0" y="632.4" fill="#e6edf3">S</text><text x="144.0" y="632.4" fill="#e6edf3">C</text><text x="153.0" y="632.4" fill="#e6edf3">O</text><text x="162.0" y="632.4" fill="#e6edf3">M</text><text x="171.0" y="632.4" fill="#e6edf3">P</text><text x="180.0" y="632.4" fill="#e6edf3">L</text><text x="189.0" y="632.4" fill="#e6edf3">E</text><text x="198.0" y="632.4" fill="#e6edf3">T</text><text x="207.0" y="632.4" fill="#e6edf3">E</text></g></svg>
